<svg width="31" height="31" viewBox="0 0 31 31" fill="none" xmlns="http://www.w3.org/2000/svg">
<path d="M24.8776 2.21947H5.74898C5.39829 2.21947 5.12582 2.52346 5.12582 2.87942V4.02784L0.458447 5.31655C0.117855 5.41009 -0.0663185 5.77644 0.0219841 6.122L5.12582 25.7334V30.3401C5.12582 30.6986 5.39829 31 5.74898 31H24.8776C25.2308 31 25.5008 30.696 25.5008 30.3401V27.1754L30.978 6.11941C31.0663 5.77644 30.8821 5.40749 30.5416 5.31396L25.5008 3.92391V2.88202C25.5008 2.52606 25.2283 2.21947 24.8776 2.21947ZM5.12582 5.19704V21.5191L1.16234 6.29089L5.12582 5.19704ZM25.5008 22.9611V5.09311L29.8377 6.29089L25.5008 22.9611ZM18.9337 0.0213734L13.8778 1.41662H18.1163L18.8 1.22695L18.8504 1.41662H19.9454L19.7057 0.496848C19.6149 0.151285 19.2743 -0.0721627 18.9337 0.0213734ZM11.3952 16.029L13.522 13.9271L13.9711 16.7669C13.9787 16.8215 13.9963 16.8787 14.0216 16.928C14.0468 16.9774 14.0821 17.0242 14.1275 17.0631C14.2234 17.1463 14.3445 17.1826 14.4606 17.1748C14.5766 17.1645 14.6901 17.1099 14.7734 17.0112L18.0229 13.0463L21.4339 16.2213V17.2736H9.18769V13.6153L11.2085 16.0108C11.2287 16.0446 11.2666 16.0654 11.3069 16.0654C11.3423 16.0654 11.3725 16.0524 11.3952 16.029ZM11.317 14.7923L9.19022 12.1655V8.63968H21.4339V14.943C20.3995 13.979 19.3348 12.919 18.2777 12.0044C18.1844 11.9212 18.0683 11.8849 17.9573 11.8927C17.8413 11.8979 17.7277 11.9498 17.6445 12.0434L17.6419 12.0486C17.6369 12.0538 17.6319 12.0589 17.6268 12.0667L14.7204 15.6081L14.289 12.8774C14.2663 12.7527 14.1982 12.6487 14.1048 12.5786C14.0115 12.511 13.8929 12.4747 13.7693 12.4954L13.7567 12.498C13.7138 12.5058 13.6709 12.5214 13.6331 12.5396C13.5902 12.5604 13.5523 12.589 13.517 12.6228L11.317 14.7923ZM13.5044 8.78778C13.3253 8.78778 13.1487 8.82676 12.9897 8.89431C12.8232 8.96446 12.6743 9.06839 12.5507 9.1957C12.4271 9.32302 12.3262 9.47631 12.2555 9.64779C12.1899 9.81148 12.1546 9.99336 12.1546 10.1778C12.1546 10.3623 12.1925 10.5442 12.2555 10.7079C12.3237 10.8794 12.4246 11.0326 12.5482 11.16C12.6718 11.2873 12.8207 11.3912 12.9872 11.4614C13.1461 11.5315 13.3202 11.5679 13.5019 11.5679C13.681 11.5679 13.8576 11.5289 14.0165 11.4614C14.183 11.3912 14.3294 11.2873 14.4555 11.16C14.5791 11.0326 14.6801 10.8794 14.7507 10.7079C14.8163 10.5442 14.8516 10.3649 14.8516 10.1778C14.8516 9.99336 14.8138 9.81148 14.7507 9.64779C14.6826 9.47631 14.5817 9.32302 14.458 9.1957C14.3344 9.06839 14.1856 8.96446 14.0191 8.89431C13.8601 8.82416 13.686 8.78778 13.5044 8.78778ZM13.0982 9.76212C13.1512 9.70755 13.2142 9.66338 13.2849 9.63221C13.3505 9.60362 13.4262 9.58804 13.5044 9.58804C13.5826 9.58804 13.6558 9.60362 13.7239 9.63221C13.7945 9.66338 13.8576 9.70755 13.9106 9.75952C13.9636 9.81408 14.0064 9.87904 14.0342 9.95179C14.0619 10.0219 14.0771 10.0973 14.0771 10.1778C14.0771 10.2558 14.0619 10.3337 14.0342 10.4039C14.0039 10.4766 13.961 10.5416 13.9106 10.5961C13.8576 10.6507 13.7945 10.6949 13.7239 10.7261C13.6583 10.7546 13.5826 10.7702 13.5044 10.7702C13.4287 10.7702 13.353 10.7546 13.2849 10.7261C13.2142 10.6949 13.1512 10.6507 13.0982 10.5987C13.0452 10.5442 13.0023 10.4792 12.972 10.4065C12.9443 10.3363 12.9292 10.261 12.9292 10.1804C12.9292 10.1025 12.9443 10.0245 12.972 9.95439C13.0023 9.88163 13.0452 9.81668 13.0982 9.76212ZM21.8779 7.69913H8.74366C8.62004 7.69913 8.50903 7.75369 8.4283 7.83943C8.34757 7.92257 8.29963 8.04209 8.29963 8.1694V17.7439C8.29963 17.8712 8.34757 17.9881 8.4283 18.0738C8.50903 18.1596 8.62004 18.2141 8.74366 18.2141H21.8779C22.0015 18.2141 22.1125 18.1596 22.1907 18.0738C22.2715 17.9907 22.3194 17.8712 22.3194 17.7439V8.1694C22.3194 8.04209 22.2715 7.92517 22.1907 7.83943C22.1125 7.75369 22.0015 7.69913 21.8779 7.69913ZM20.5206 19.7601H12.7702C12.6971 19.7601 12.634 19.7913 12.586 19.838L12.5785 19.8484C12.5381 19.8978 12.5104 19.9575 12.5104 20.0277V20.5473C12.5104 20.6201 12.5406 20.6876 12.586 20.737C12.634 20.7864 12.6971 20.815 12.7702 20.815H20.5206C20.5937 20.815 20.6568 20.7838 20.7048 20.737L20.7123 20.7266C20.7527 20.6773 20.7804 20.6175 20.7804 20.5473V20.0277C20.7804 19.9524 20.7502 19.8874 20.7048 19.838C20.6543 19.7913 20.5912 19.7601 20.5206 19.7601ZM22.1933 19.7601H21.5499C21.4793 19.7601 21.4162 19.7913 21.3658 19.838C21.3203 19.8874 21.2901 19.955 21.2901 20.0277V20.5473C21.2901 20.6201 21.3203 20.6876 21.3658 20.737C21.4137 20.7864 21.4768 20.815 21.5499 20.815H22.1933C22.2639 20.815 22.3295 20.7838 22.3774 20.737C22.4254 20.6902 22.4531 20.6227 22.4531 20.5473V20.0277C22.4531 19.9524 22.4228 19.8874 22.3774 19.838C22.332 19.7887 22.2639 19.7601 22.1933 19.7601ZM22.0823 24.1978H8.54183C8.43587 24.1978 8.34252 24.2472 8.2744 24.3278C8.21133 24.4031 8.17097 24.5044 8.17097 24.6162V24.7201C8.17097 24.8318 8.20881 24.9357 8.2744 25.0085L8.28197 25.0163C8.34757 25.0916 8.44092 25.1358 8.54183 25.1358H22.0823C22.1882 25.1358 22.2816 25.0864 22.3497 25.0059C22.4128 24.9305 22.4531 24.8292 22.4531 24.7175V24.6136C22.4531 24.5018 22.4128 24.3979 22.3497 24.3252L22.3421 24.3174C22.274 24.2446 22.1857 24.1978 22.0823 24.1978ZM22.0823 21.9634H8.54183C8.43587 21.9634 8.34252 22.0127 8.2744 22.0933C8.21133 22.1686 8.17097 22.27 8.17097 22.3817V22.4856C8.17097 22.5973 8.20881 22.7013 8.2744 22.774L8.28197 22.7818C8.34757 22.8572 8.44092 22.9013 8.54183 22.9013H22.0823C22.1882 22.9013 22.2816 22.852 22.3497 22.7714C22.4128 22.6961 22.4531 22.5947 22.4531 22.483V22.3791C22.4531 22.2674 22.4128 22.1634 22.3497 22.0907L22.3421 22.0829C22.274 22.0101 22.1857 21.9634 22.0823 21.9634ZM6.18291 3.3497H24.4412V29.8724H6.18291V3.3497Z" fill="white"/>
</svg>
