<svg width="27" height="32" viewBox="0 0 27 32" fill="none" xmlns="http://www.w3.org/2000/svg">
<path fill-rule="evenodd" clip-rule="evenodd" d="M18.1472 9.39322C18.4316 9.40338 18.6448 9.46177 18.7921 9.56078C18.8759 9.61664 18.9368 9.68773 18.9774 9.77405C19.0206 9.86798 19.0409 9.98477 19.0384 10.1168C19.0282 10.5052 18.8225 11.013 18.429 11.5969L18.424 11.6046L17.1469 13.6356C16.6341 14.4506 16.0984 15.2808 15.4307 15.8901C14.7883 16.4766 14.0114 16.8727 12.9807 16.8752C11.8661 16.8777 11.0511 16.4664 10.3885 15.847C9.70048 15.2021 9.15717 14.3186 8.62147 13.4376L7.18195 11.0689C6.91283 10.457 6.81635 10.0482 6.87729 9.80705C6.91283 9.66488 7.07024 9.59379 7.33936 9.5811C7.39521 9.57856 7.45614 9.57856 7.51454 9.57856C7.57801 9.58109 7.64656 9.58363 7.71511 9.59125C7.75319 9.59379 7.79127 9.59125 7.82681 9.58363C7.95376 9.59125 8.08578 9.58109 8.22034 9.56332L7.7278 7.38246C11.3837 7.95877 14.1181 5.24475 17.9797 6.83914L17.7029 9.40845C17.8654 9.41861 18.0127 9.41353 18.1472 9.39322ZM17.0809 24.903H16.2659C15.7404 24.903 15.385 24.9284 15.1996 24.9766C15.0143 25.0249 14.8721 25.1036 14.7756 25.2153C14.6792 25.3245 14.6182 25.4489 14.5954 25.5834C14.57 25.7205 14.5598 25.9846 14.5598 26.3832V27.8506C14.5598 28.2264 14.5776 28.4777 14.6131 28.6047C14.6487 28.7316 14.7096 28.8306 14.7985 28.9017C14.8873 28.9728 14.994 29.0236 15.126 29.0515C15.2555 29.0794 15.451 29.0947 15.7099 29.0947H17.0834V24.903H17.0809ZM15.9892 25.619V28.3787C15.8343 28.3787 15.7404 28.3457 15.7048 28.2848C15.6693 28.2213 15.6515 28.0512 15.6515 27.7694V26.1394C15.6515 25.949 15.6592 25.8272 15.6693 25.7738C15.682 25.7205 15.7074 25.6799 15.7505 25.6571C15.7937 25.6317 15.8724 25.619 15.9892 25.619ZM13.9683 24.903H12.153V25.7408H12.8791V26.5406H12.2012V27.3352H12.8791V28.2568H12.0794V29.0947H13.9708V24.903H13.9683ZM8.99976 24.903L9.55069 29.0921H11.2009L11.8331 24.903H10.683C10.5535 26.0582 10.4596 27.0357 10.3987 27.8328C10.3403 27.0255 10.2768 26.3095 10.2184 25.6824L10.1473 24.9005H8.99976V24.903ZM18.0431 24.6796V25.4692H18.1523C18.2513 25.4692 18.3275 25.4895 18.3783 25.5327C18.429 25.5758 18.4646 25.6393 18.4849 25.7307C18.4976 25.7789 18.5027 25.9109 18.5052 26.1267C18.5077 26.3425 18.5306 26.5152 18.5737 26.6396C18.6067 26.7361 18.6524 26.8122 18.7108 26.8706C18.7565 26.9138 18.8302 26.9569 18.9343 27.0026C18.8276 27.0534 18.7464 27.1042 18.6956 27.1601C18.6423 27.2134 18.5991 27.2972 18.561 27.4063C18.523 27.5155 18.5052 27.6932 18.5052 27.9344C18.5052 28.1527 18.4925 28.2924 18.4722 28.3584C18.4493 28.4244 18.4138 28.4726 18.3605 28.498C18.3072 28.526 18.2031 28.5386 18.0457 28.5386V29.3181H18.3478C18.6601 29.3181 18.8835 29.2825 19.0155 29.214C19.1475 29.1454 19.2415 29.0464 19.2973 28.9144C19.3532 28.7824 19.3811 28.5869 19.3811 28.3228C19.3811 28.2645 19.3786 28.2061 19.376 28.1502C19.3735 28.1147 19.3735 28.0791 19.3735 28.041C19.3735 27.8532 19.3913 27.7211 19.4243 27.6424C19.4573 27.5637 19.5055 27.5053 19.5715 27.4698C19.635 27.4342 19.7264 27.4165 19.8482 27.4114V26.5863C19.7238 26.5863 19.6299 26.566 19.569 26.5279C19.508 26.4898 19.4598 26.4289 19.4268 26.3502C19.3938 26.2715 19.3786 26.1344 19.3786 25.9465V25.8652C19.3811 25.8272 19.3811 25.7916 19.3811 25.7535C19.3811 25.4692 19.3582 25.261 19.31 25.1366C19.2618 25.0097 19.1983 24.9106 19.1145 24.8446C19.051 24.7913 18.9673 24.7532 18.8581 24.7278C18.7159 24.6948 18.5534 24.6771 18.3706 24.6771H18.0431V24.6796ZM8.03754 24.6796V25.4692H7.93091C7.83189 25.4692 7.75573 25.4895 7.70495 25.5327C7.65417 25.5758 7.61863 25.6393 7.59832 25.7307C7.58562 25.7789 7.58055 25.9109 7.57801 26.1267C7.57547 26.3425 7.55262 26.5152 7.50946 26.6396C7.47645 26.7361 7.43075 26.8122 7.37236 26.8706C7.32666 26.9138 7.25303 26.9569 7.14894 27.0026C7.25557 27.0534 7.33682 27.1042 7.38759 27.1601C7.44091 27.2134 7.48407 27.2972 7.52215 27.4063C7.56024 27.5155 7.57801 27.6932 7.57801 27.9344C7.57801 28.1527 7.58816 28.2924 7.61101 28.3584C7.63386 28.4244 7.6694 28.4726 7.72272 28.498C7.77604 28.526 7.88013 28.5386 8.03754 28.5386V29.3181H7.73541C7.4206 29.3181 7.19972 29.2825 7.0677 29.214C6.93568 29.1454 6.84174 29.0464 6.78589 28.9144C6.73003 28.7824 6.7021 28.5869 6.7021 28.3228C6.7021 28.2645 6.70465 28.2061 6.70718 28.1502C6.70972 28.1147 6.70972 28.0791 6.70972 28.041C6.70972 27.8532 6.69195 27.7211 6.65895 27.6424C6.62594 27.5637 6.5777 27.5053 6.51169 27.4698C6.44822 27.4342 6.35682 27.4165 6.23496 27.4114V26.5863C6.35936 26.5863 6.4533 26.566 6.51423 26.5279C6.5777 26.4898 6.6234 26.4289 6.65641 26.3502C6.68941 26.2715 6.70465 26.1344 6.70465 25.9465V25.8652C6.7021 25.8272 6.7021 25.7916 6.7021 25.7535C6.7021 25.4692 6.72495 25.261 6.77319 25.1366C6.82143 25.0097 6.88744 24.9106 6.96869 24.8446C7.03216 24.7913 7.11594 24.7532 7.22511 24.7278C7.36728 24.6948 7.52977 24.6771 7.71257 24.6771H8.03754V24.6796ZM6.85697 8.93369C6.80366 6.70712 6.39491 4.45771 7.97914 2.63228C9.10639 1.33239 12.0464 0.106127 13.953 0.00203413C14.7579 -0.0411262 14.4507 0.613896 15.2453 0.888091C16.8854 1.45425 18.3199 2.65767 18.7895 4.32823C18.8657 4.60242 18.919 4.87915 18.947 5.15589C19.0003 6.31868 18.9698 7.70489 18.886 8.80675C19.0003 8.84991 19.1044 8.90322 19.1958 8.96416C19.3938 9.09618 19.5385 9.26882 19.635 9.47446C19.7264 9.66995 19.767 9.89337 19.7594 10.1396C19.7442 10.6626 19.503 11.2974 19.0358 11.9955L17.7588 14.0266C17.3119 14.7375 16.8448 15.4611 16.2761 16.0729C16.304 16.1542 16.2735 16.0653 16.2913 16.1186C16.4487 16.5959 16.7128 17.3931 16.9489 17.84C18.5001 18.8555 22.052 19.117 23.4306 19.8863C27.1931 21.9834 25.8348 26.307 25.8805 29.8766C25.8069 30.6738 25.355 31.1308 24.4664 31.1994H23.5042L24.5578 23.202C24.639 22.58 24.1973 22.0697 23.654 22.0697H18.7108H12.8766C13.0771 20.7749 16.4259 19.5257 16.5452 18.5508C16.5122 18.528 16.4817 18.4975 16.4563 18.462C16.172 18.0659 15.8775 17.2408 15.6744 16.6391C14.9559 17.2205 14.0927 17.6013 12.9832 17.6038C11.988 17.6064 11.1933 17.3296 10.5256 16.8803C10.4596 16.9742 10.3936 17.0732 10.3225 17.1773C10.0051 17.6445 9.63447 18.1852 9.28919 18.5711C9.36281 19.6806 12.2673 19.6933 12.5973 22.0697H2.25659C1.71328 22.0697 1.26898 22.58 1.35276 23.202L2.40638 31.1994H1.44416C0.555563 31.1308 0.103647 30.6738 0.027483 29.8766C0.278828 26.5025 -0.985518 21.8158 2.47747 19.8863C3.83829 19.1271 7.31651 18.8631 8.89821 17.8806C9.16479 17.5505 9.45167 17.1291 9.70556 16.7584C9.7868 16.6365 9.86551 16.5223 9.93913 16.4182L9.90105 16.3852C9.14194 15.6743 8.5707 14.7476 8.00961 13.8235L6.55231 11.4243C6.5447 11.4116 6.53708 11.3964 6.52946 11.3837C6.18926 10.6093 6.07755 10.0406 6.1791 9.63949C6.27558 9.26628 6.499 9.04286 6.85697 8.93369Z" fill="white"/>
</svg>
