<svg width="29" height="32" viewBox="0 0 29 32" fill="none" xmlns="http://www.w3.org/2000/svg">
<path fill-rule="evenodd" clip-rule="evenodd" d="M10.892 10.3993L10.1659 11.1254C9.97545 11.3158 9.97545 11.6306 10.1659 11.821L10.7523 12.4075C10.5899 12.7096 10.468 13.0346 10.3893 13.3748H9.63017C9.35851 13.3748 9.13763 13.5957 9.13763 13.8673V14.8956C9.13763 15.1672 9.35851 15.3881 9.63017 15.3881H10.4578C10.5594 15.7232 10.7041 16.0381 10.8869 16.33L10.3512 16.8657C10.1608 17.0561 10.1608 17.371 10.3512 17.5614L11.0773 18.2875C11.2677 18.4779 11.5825 18.4779 11.773 18.2875L12.3569 17.7035C12.659 17.866 12.984 17.9879 13.3267 18.0666V18.8257C13.3267 19.0974 13.5476 19.3182 13.8193 19.3182H14.8475C15.1192 19.3182 15.34 19.0974 15.34 18.8257V17.998C15.6752 17.8965 15.99 17.7518 16.2819 17.569L16.8126 18.1021C17.003 18.2926 17.3178 18.2926 17.5082 18.1021L18.2343 17.376C18.4247 17.1856 18.4247 16.8708 18.2343 16.6804L17.6504 16.0965C17.8129 15.7943 17.9347 15.4694 18.0134 15.1292H18.7725C19.0417 15.1292 19.2651 14.9083 19.2651 14.6366V13.6084C19.2651 13.3367 19.0442 13.1159 18.7725 13.1159H17.9449C17.8433 12.7807 17.6986 12.4659 17.5158 12.1739L18.0515 11.6382C18.2419 11.4478 18.2419 11.133 18.0515 10.9426L17.3254 10.2165C17.135 10.0261 16.8202 10.0261 16.6298 10.2165L16.0433 10.803C15.7412 10.6405 15.4162 10.5186 15.076 10.4399V9.68079C15.076 9.40914 14.8551 9.18826 14.5835 9.18826H13.5552C13.2836 9.18826 13.0627 9.40914 13.0627 9.68079V10.5085C12.7276 10.61 12.4127 10.7547 12.1208 10.9375L11.5851 10.4018C11.3947 10.2063 11.0824 10.2063 10.892 10.3993ZM17.4904 25.9142C17.7799 25.9218 18.0337 25.7085 18.0744 25.4166C18.1175 25.1119 17.9119 24.8301 17.6123 24.7717C17.9423 22.9006 18.8436 21.8698 19.7957 20.7806C20.537 19.9326 21.3063 19.0517 21.9131 17.7543C22.5097 16.4773 22.8372 15.1571 22.8271 13.7861C22.8144 12.4151 22.4666 11.0035 21.71 9.5437C21.7049 9.53354 21.6998 9.52592 21.6948 9.51577C20.7021 7.83505 19.3133 6.71289 17.7672 6.08325C16.4698 5.55263 15.0608 5.37238 13.6796 5.49932C12.3036 5.62626 10.9554 6.05786 9.77742 6.75351C8.2795 7.63956 7.04816 8.95469 6.37029 10.6151C6.0047 11.5138 5.75589 12.5167 5.72543 13.616C5.69496 14.7102 5.88284 15.8908 6.38807 17.1399C7.0634 18.813 7.95707 19.8514 8.79235 20.8238C9.56162 21.72 10.2776 22.5527 10.6762 23.8298C10.4502 23.8831 10.2725 24.0684 10.237 24.3122C10.1938 24.627 10.4147 24.9189 10.7295 24.9621L10.9224 24.99C10.958 25.2668 10.9808 25.5638 10.991 25.8812L10.9275 25.871C10.6127 25.8278 10.3207 26.0487 10.2776 26.3635C10.2344 26.6784 10.4553 26.9703 10.7701 27.0135L10.9681 27.0414C10.9656 27.0795 10.9631 27.1176 10.9605 27.1557C10.9428 27.3791 10.9402 27.5949 10.9529 27.8005L10.9199 27.7954C10.6025 27.7574 10.3157 27.9833 10.275 28.2981C10.237 28.6155 10.4629 28.9024 10.7777 28.943L11.2043 28.9963C11.5089 29.7859 12.0522 30.3876 12.6946 30.7583C13.1363 31.0147 13.6263 31.162 14.1188 31.1924C14.619 31.2229 15.1242 31.129 15.5863 30.9055C16.1144 30.6466 16.5866 30.2175 16.9293 29.6006C17.0944 29.5168 17.2162 29.3543 17.2416 29.1563C17.2518 29.0776 17.2442 29.0014 17.2239 28.9303C17.3229 28.6358 17.3965 28.3134 17.4447 27.9579L17.4625 27.9605C17.7773 28.0036 18.0693 27.7828 18.1124 27.4679C18.1556 27.1531 17.9347 26.8612 17.6199 26.818L17.4828 26.7977C17.4752 26.4879 17.4777 26.1934 17.4904 25.9142ZM28.1409 14.9438C28.4379 14.9514 28.6842 14.7204 28.6944 14.4234C28.7045 14.1263 28.4709 13.88 28.1739 13.8699L25.9651 13.7937C25.6681 13.7836 25.4218 14.0171 25.4116 14.3142C25.4015 14.6112 25.635 14.8575 25.9321 14.8677L28.1409 14.9438ZM0.591883 12.7579C0.297377 12.7274 0.0333385 12.9432 0.00287247 13.2377C-0.0275955 13.5322 0.188208 13.7963 0.482714 13.8267L2.68135 14.0578C2.97586 14.0882 3.2399 13.8724 3.27036 13.5779C3.30083 13.2834 3.08503 13.0194 2.79052 12.9889L0.591883 12.7579ZM4.59564 3.75259C4.43062 3.50633 4.09803 3.44032 3.85176 3.60534C3.60549 3.77036 3.53948 4.10295 3.70451 4.34922L4.93331 6.18735C5.09833 6.43361 5.43092 6.49962 5.67719 6.3346C5.92346 6.16957 5.98947 5.83698 5.82444 5.59072L4.59564 3.75259ZM14.063 0.523183C14.0554 0.226138 13.8091 -0.00743544 13.5146 0.000181097C13.2176 0.00779763 12.984 0.254066 12.9916 0.548572L13.0475 2.75737C13.0551 3.05441 13.3013 3.28798 13.5958 3.28037C13.8929 3.27275 14.1265 3.02648 14.1188 2.73198L14.063 0.523183ZM25.1704 3.94301C25.3888 3.7399 25.3989 3.39969 25.1984 3.18389C24.9953 2.96555 24.6551 2.9554 24.4392 3.15596L22.822 4.66404C22.6037 4.86715 22.5935 5.20735 22.7941 5.42315C22.9972 5.64149 23.3374 5.65165 23.5532 5.45108L25.1704 3.94301ZM16.5384 24.6168L11.844 23.9491C11.4404 22.2481 10.5619 21.2249 9.60986 20.1205C8.8279 19.2116 7.99515 18.2418 7.38583 16.7337C6.939 15.6293 6.77397 14.5935 6.79936 13.6389C6.82475 12.6868 7.04309 11.8083 7.36806 11.0137C7.95199 9.58432 9.02085 8.44692 10.3258 7.67511C11.3693 7.05817 12.56 6.6748 13.7761 6.56563C14.9871 6.45392 16.2235 6.61387 17.3635 7.07848C18.6989 7.62433 19.8998 8.59417 20.763 10.054C21.4333 11.3539 21.743 12.5979 21.7532 13.7937C21.7633 14.9971 21.4713 16.1625 20.9407 17.2973C20.3999 18.455 19.6789 19.2776 18.9884 20.0697C17.9119 21.3036 16.8938 22.469 16.5384 24.6168ZM12.0345 25.1424L16.419 25.7644C16.4063 26.0436 16.4013 26.3356 16.4063 26.6454L12.0776 26.031C12.0725 25.7187 12.0598 25.4216 12.0345 25.1424ZM16.3835 27.8081C16.353 28.0417 16.3073 28.255 16.2489 28.453L12.0471 27.9351C12.0192 27.7167 12.0141 27.4857 12.0345 27.2394V27.2344L12.037 27.1912L16.3835 27.8081ZM15.6523 29.5447C15.4898 29.7148 15.3096 29.8468 15.1192 29.9382C14.8272 30.0804 14.5048 30.1388 14.1874 30.121C13.8599 30.1007 13.5349 30.0017 13.2379 29.8291C12.9586 29.6666 12.7073 29.4406 12.5067 29.1563L15.6523 29.5447ZM14.2001 12.2298C13.0855 12.2298 12.1792 13.1336 12.1792 14.2507C12.1792 15.3678 13.083 16.2716 14.2001 16.2716C15.3172 16.2716 16.221 15.3678 16.221 14.2507C16.221 13.1336 15.3146 12.2298 14.2001 12.2298Z" fill="white"/>
</svg>
