<svg width="32" height="32" viewBox="0 0 32 32" fill="none" xmlns="http://www.w3.org/2000/svg">
<path d="M5.81408 9.57676C7.42501 9.57676 8.88058 10.2418 9.93545 11.3142C10.1726 11.5553 10.3934 11.8213 10.5896 12.104L19.7891 8.2134C19.4947 7.50678 19.3394 6.73366 19.3394 5.92728C19.3394 4.28959 19.9936 2.80985 21.0484 1.73745C22.1033 0.665052 23.5589 0 25.1698 0C26.7807 0 28.2363 0.665052 29.2912 1.73745C30.3461 2.80985 31.0002 4.28959 31.0002 5.92728C31.0002 7.56497 30.3461 9.04471 29.2912 10.1171C28.2363 11.1895 26.7807 11.8546 25.1698 11.8546C23.5589 11.8546 22.1033 11.1895 21.0484 10.1171C20.8685 9.93422 20.6968 9.7347 20.5414 9.52688L11.2847 13.4424C11.5219 14.0825 11.6527 14.7808 11.6527 15.504C11.6527 15.9529 11.6036 16.3852 11.5137 16.8092L20.7622 21.2152C20.8522 21.1071 20.9503 20.999 21.0566 20.891C22.1115 19.8186 23.5671 19.1535 25.178 19.1535C26.7889 19.1535 28.2445 19.8186 29.2994 20.891C30.3542 21.9634 31.0084 23.4431 31.0084 25.0808C31.0084 26.7185 30.3542 28.1982 29.2994 29.2706C28.2445 30.343 26.7889 31.0081 25.178 31.0081C23.5671 31.0081 22.1115 30.343 21.0566 29.2706C20.0017 28.1982 19.3476 26.7185 19.3476 25.0808C19.3476 24.1497 19.5602 23.2602 19.9445 22.4788L11.0149 18.2224C10.7368 18.7711 10.377 19.2699 9.95181 19.6939C8.89693 20.7663 7.44137 21.4313 5.83043 21.4313C4.2195 21.4313 2.76394 20.7663 1.70906 19.6939C0.654186 18.6215 0 17.1417 0 15.504C0 13.8663 0.654186 12.3866 1.70906 11.3142C2.76394 10.2418 4.2195 9.57676 5.83043 9.57676H5.81408ZM28.2363 2.80153C27.4513 2.00347 26.3637 1.50468 25.1616 1.50468C23.9596 1.50468 22.872 2.00347 22.087 2.80153C21.3019 3.5996 20.8113 4.70525 20.8113 5.92728C20.8113 7.14931 21.3019 8.25496 22.087 9.05303C22.872 9.85109 23.9596 10.3499 25.1616 10.3499C26.3637 10.3499 27.4513 9.85109 28.2363 9.05303C29.0213 8.25496 29.512 7.14931 29.512 5.92728C29.512 4.70525 29.0213 3.5996 28.2363 2.80153ZM28.2363 21.9467C27.4513 21.1487 26.3637 20.6499 25.1616 20.6499C23.9596 20.6499 22.872 21.1487 22.087 21.9467C21.3019 22.7448 20.8113 23.8504 20.8113 25.0725C20.8113 26.2945 21.3019 27.4002 22.087 28.1982C22.872 28.9963 23.9596 29.4951 25.1616 29.4951C26.3637 29.4951 27.4513 28.9963 28.2363 28.1982C29.0213 27.4002 29.512 26.2945 29.512 25.0725C29.512 23.8504 29.0213 22.7448 28.2363 21.9467ZM8.88875 12.37C8.10373 11.5719 7.01615 11.0731 5.81408 11.0731C4.61201 11.0731 3.52443 11.5719 2.7394 12.37C1.95438 13.168 1.46374 14.2737 1.46374 15.4957C1.46374 16.7178 1.95438 17.8234 2.7394 18.6215C3.52443 19.4195 4.61201 19.9183 5.81408 19.9183C7.01615 19.9183 8.10373 19.4195 8.88875 18.6215C9.67378 17.8234 10.1644 16.7178 10.1644 15.4957C10.1644 14.2737 9.67378 13.168 8.88875 12.37Z" fill="white"/>
</svg>
