<svg width="32" height="25" viewBox="0 0 32 25" fill="none" xmlns="http://www.w3.org/2000/svg">
<path d="M26.3608 12.7562C26.1501 12.7537 25.9495 12.8146 25.782 12.9213L25.787 12.6369C25.7921 12.3449 25.6753 12.0809 25.4849 11.8879C25.2945 11.695 25.033 11.5731 24.741 11.5681C24.741 11.5681 24.741 11.5681 24.7385 11.5681C24.5227 11.5655 24.312 11.629 24.1317 11.7508L24.1343 11.5224C24.1393 11.2304 24.0226 10.9663 23.8321 10.7734C23.6417 10.5804 23.3802 10.4586 23.0883 10.4535C22.7963 10.4484 22.5323 10.5652 22.3393 10.7556C22.1463 10.946 22.0245 11.2075 22.0194 11.4995V11.7305C21.8518 11.6138 21.6487 11.5427 21.4304 11.5401C21.1384 11.535 20.8744 11.6518 20.6814 11.8422C20.4885 12.0327 20.3666 12.2942 20.3615 12.5861L20.3006 16.4452C20.2854 16.534 20.2778 16.6204 20.2778 16.7092L20.2727 17.0037L20.2473 16.9783C20.067 16.8057 19.8919 16.6254 19.8258 16.5569C19.3815 16.0999 18.8966 15.9983 18.5107 16.1177C18.3381 16.171 18.1832 16.2675 18.0639 16.3969C17.9446 16.5239 17.8557 16.6864 17.81 16.8641C17.7034 17.2906 17.8328 17.8288 18.3584 18.3087C19.2165 19.1668 19.77 20.1544 20.8058 20.9186L20.7728 21.2055H20.75L20.4936 23.2087H26.861L26.5716 21.2055H26.5411L26.4979 20.8958C26.828 20.1874 27.3205 19.5502 27.3307 18.7733C27.3561 16.7371 27.3789 15.8638 27.4043 13.8276C27.4094 13.5357 27.2926 13.2716 27.1022 13.0787C26.9143 12.8832 26.6528 12.7613 26.3608 12.7562ZM7.07069 14.0891C7.28141 14.0866 7.48198 14.1475 7.64954 14.2541L7.64447 13.9698C7.63939 13.6778 7.75617 13.4138 7.94659 13.2208C8.137 13.0279 8.3985 12.906 8.69047 12.9009C8.69047 12.9009 8.69047 12.9009 8.69301 12.9009C8.90881 12.8984 9.11953 12.9619 9.29979 13.0837L9.29725 12.8552C9.29218 12.5633 9.40896 12.2992 9.59937 12.1063C9.78979 11.9133 10.0513 11.7915 10.3433 11.7864C10.6352 11.7813 10.8993 11.8981 11.0922 12.0885C11.2852 12.2764 11.407 12.5404 11.4121 12.8324V13.0634C11.5797 12.9466 11.7828 12.8756 12.0011 12.873C12.2931 12.8679 12.5571 12.9847 12.7501 13.1751C12.943 13.3656 13.0649 13.6271 13.07 13.919L13.1309 17.7781C13.1436 17.8644 13.1538 17.9532 13.1538 18.0421L13.1588 18.3366L13.1842 18.3112C13.3645 18.1386 13.5397 17.9583 13.6057 17.8898C14.05 17.4328 14.5349 17.3312 14.9208 17.448C15.0934 17.5013 15.2483 17.5978 15.3676 17.7273C15.487 17.8542 15.5758 18.0167 15.6215 18.1944C15.7281 18.621 15.5987 19.1592 15.0731 19.639C14.215 20.4972 13.6615 21.4848 12.6257 22.249L12.6587 22.5359H12.6815L12.938 24.539H6.57815L6.86504 22.5359H6.89551L6.93867 22.2236C6.60862 21.5152 6.11608 20.878 6.10592 20.1011C6.08054 18.065 6.05515 17.1916 6.0323 15.1554C6.02722 14.8635 6.14401 14.5994 6.33442 14.4065C6.51722 14.2135 6.77872 14.0917 7.07069 14.0891ZM7.06307 3.10608C7.04276 2.71256 6.98183 2.32158 6.92343 1.92298C6.79649 1.08516 6.66701 1.44568 6.95136 0.648482C7.04276 0.397136 6.91074 0.117864 6.65939 0.029004C6.40805 -0.0623944 6.12877 0.0696255 6.03992 0.320971C5.66924 1.35428 5.8165 1.11309 5.96121 2.0677C6.01453 2.4206 6.06784 2.76842 6.08815 3.10608C5.83681 3.10608 5.60831 3.20764 5.44329 3.37266C5.43059 3.38536 5.4179 3.39805 5.40774 3.41328C5.26303 3.57577 5.17671 3.78649 5.17671 4.01753V4.06577H2.3002C1.66802 4.06577 1.09171 4.32473 0.675337 4.7411C0.258966 5.15747 3.8147e-06 5.73379 3.8147e-06 6.36596V16.8641C3.8147e-06 17.4963 0.258966 18.0726 0.675337 18.4889C1.09171 18.9053 1.66802 19.1643 2.3002 19.1643H5.25541C5.25033 18.8165 5.24526 18.4991 5.24018 18.1944H2.3002C1.9346 18.1944 1.60455 18.0446 1.36336 17.8035C1.12217 17.5623 0.97238 17.2322 0.97238 16.8666V6.3685C0.97238 6.0029 1.12217 5.67285 1.36336 5.43166C1.60455 5.19047 1.9346 5.04068 2.3002 5.04068H5.66163C5.93074 5.04068 6.14908 4.82234 6.14908 4.55323V4.07846H7.28903V4.55323C7.28903 4.82234 7.50737 5.04068 7.77649 5.04068H28.8971C29.2627 5.04068 29.5928 5.19047 29.834 5.43166C30.0752 5.67285 30.2249 6.0029 30.2249 6.3685V16.8666C30.2249 17.2322 30.0752 17.5623 29.834 17.8035C29.5928 18.0446 29.2627 18.1944 28.8971 18.1944H28.1736L28.1659 18.7784C28.1634 18.9129 28.1533 19.0399 28.1355 19.1643H28.8971C29.5293 19.1643 30.1056 18.9053 30.522 18.4889C30.9384 18.0751 31.1973 17.4988 31.1973 16.8666V6.3685C31.1973 5.73633 30.9384 5.16001 30.522 4.74364C30.1056 4.32727 29.5293 4.06831 28.8971 4.06831H8.26394V4.02007C8.26394 3.77126 8.16239 3.54276 7.99736 3.37774C7.83234 3.21271 7.60384 3.11116 7.35504 3.11116H7.06307V3.10608ZM16.3679 19.1643H18.0233C17.9446 19.078 17.8608 18.9916 17.7745 18.9053L17.777 18.9028C17.5358 18.6768 17.353 18.4382 17.221 18.1944H16.4644C16.5101 18.5016 16.4822 18.8317 16.3679 19.1643ZM28.0847 6.53606H26.1171C25.848 6.53606 25.6296 6.7544 25.6296 7.02352V8.68392C25.6296 8.95304 25.848 9.17138 26.1171 9.17138H28.0847C28.3538 9.17138 28.5722 8.95304 28.5722 8.68392V7.02352C28.5722 6.7544 28.3538 6.53606 28.0847 6.53606ZM24.1876 6.53606H22.22C21.9509 6.53606 21.7325 6.7544 21.7325 7.02352V8.68392C21.7325 8.95304 21.9509 9.17138 22.22 9.17138H24.1876C24.4567 9.17138 24.675 8.95304 24.675 8.68392V7.02352C24.675 6.7544 24.4567 6.53606 24.1876 6.53606ZM20.2879 6.53606H18.3203C18.0512 6.53606 17.8328 6.7544 17.8328 7.02352V8.68392C17.8328 8.95304 18.0512 9.17138 18.3203 9.17138H20.2879C20.557 9.17138 20.7754 8.95304 20.7754 8.68392V7.02352C20.7754 6.7544 20.557 6.53606 20.2879 6.53606ZM16.3882 6.53606H14.4206C14.1515 6.53606 13.9332 6.7544 13.9332 7.02352V8.68392C13.9332 8.95304 14.1515 9.17138 14.4206 9.17138H16.3882C16.6574 9.17138 16.8757 8.95304 16.8757 8.68392V7.02352C16.8757 6.7544 16.6599 6.53606 16.3882 6.53606ZM12.4886 6.53606H10.521C10.2519 6.53606 10.0335 6.7544 10.0335 7.02352V8.68392C10.0335 8.95304 10.2519 9.17138 10.521 9.17138H12.4886C12.7577 9.17138 12.976 8.95304 12.976 8.68392V7.02352C12.976 6.7544 12.7577 6.53606 12.4886 6.53606ZM8.59145 6.53606H6.62385C6.35473 6.53606 6.13639 6.7544 6.13639 7.02352V8.68392C6.13639 8.95304 6.35473 9.17138 6.62385 9.17138H8.59145C8.86057 9.17138 9.07891 8.95304 9.07891 8.68392V7.02352C9.07637 6.7544 8.85803 6.53606 8.59145 6.53606ZM4.69179 6.53606H2.72418C2.45507 6.53606 2.23673 6.7544 2.23673 7.02352V8.68392C2.23673 8.95304 2.45507 9.17138 2.72418 9.17138H4.69179C4.96091 9.17138 5.17924 8.95304 5.17924 8.68392V7.02352C5.17924 6.7544 4.96091 6.53606 4.69179 6.53606ZM4.69179 10.1209H2.72418C2.45507 10.1209 2.23673 10.3418 2.23673 10.6134V15.8638C2.23673 16.1354 2.45507 16.3563 2.72418 16.3563H4.69179C4.96091 16.3563 5.17924 16.1354 5.17924 15.8638V10.6134C5.17924 10.3418 4.96091 10.1209 4.69179 10.1209ZM28.0847 10.1641H26.1171C25.848 10.1641 25.6296 10.3824 25.6296 10.6515V10.9663C25.7972 11.0577 25.9495 11.172 26.0816 11.3091C26.2542 11.4868 26.3938 11.6975 26.4878 11.9311C26.9625 11.9692 27.3865 12.1799 27.6988 12.4998C27.7877 12.5912 27.8689 12.6928 27.94 12.8019H28.0847C28.3538 12.8019 28.5722 12.5836 28.5722 12.3145V10.6541C28.5722 10.3824 28.3538 10.1641 28.0847 10.1641ZM20.2879 10.1641H18.3203C18.0512 10.1641 17.8328 10.3824 17.8328 10.6515V12.3119C17.8328 12.581 18.0512 12.7994 18.3203 12.7994H19.5237L19.5263 12.5861C19.5288 12.3272 19.5847 12.0834 19.6786 11.8626C19.7776 11.6315 19.9223 11.4233 20.0975 11.2507C20.2752 11.0755 20.4859 10.9359 20.7195 10.8419C20.7373 10.8343 20.7551 10.8267 20.7754 10.8216V10.649C20.7754 10.3824 20.557 10.1641 20.2879 10.1641ZM16.3882 10.1641H14.4206C14.1515 10.1641 13.9332 10.3824 13.9332 10.6515V12.3119C13.9332 12.581 14.1515 12.7994 14.4206 12.7994H16.3882C16.6574 12.7994 16.8757 12.581 16.8757 12.3119V10.6515C16.8757 10.3824 16.6599 10.1641 16.3882 10.1641ZM12.4886 10.1641H10.521C10.2519 10.1641 10.0335 10.3824 10.0335 10.6515V10.9841C10.13 10.9689 10.229 10.9587 10.3306 10.9587C10.5895 10.9562 10.8333 11.0044 11.0567 11.0933C11.2902 11.1872 11.501 11.3269 11.6812 11.502C11.8386 11.6569 11.9707 11.8397 12.0671 12.0454C12.2956 12.053 12.5114 12.0987 12.712 12.1799C12.8034 12.218 12.8923 12.2612 12.976 12.3119V10.6566C12.976 10.3824 12.7577 10.1641 12.4886 10.1641ZM8.59145 10.1641H6.62385C6.35473 10.1641 6.13639 10.3824 6.13639 10.6515V12.3119C6.13639 12.581 6.35473 12.7994 6.62385 12.7994H7.20778C7.25094 12.7435 7.29918 12.6902 7.34742 12.6394C7.52006 12.4643 7.72825 12.3195 7.95928 12.2205C8.16239 12.1342 8.38581 12.0809 8.62192 12.0707C8.71332 11.8676 8.84026 11.6848 8.99513 11.5274C9.02306 11.4995 9.04844 11.4741 9.07891 11.4487V10.6541C9.07637 10.3824 8.85803 10.1641 8.59145 10.1641ZM28.2015 16.3741C28.4148 16.3208 28.5722 16.1304 28.5722 15.8993V14.2415C28.5722 14.0257 28.4325 13.8429 28.2396 13.7794C28.2396 13.8022 28.2396 13.8225 28.2396 13.8454C28.2269 14.8812 28.2142 15.6074 28.2015 16.336V16.3741ZM19.5085 13.754H14.4181C14.1515 13.754 13.9357 13.9723 13.9357 14.2415V15.9019C13.9357 16.171 14.1515 16.3893 14.4181 16.3893H17.0966C17.122 16.3284 17.1499 16.2675 17.1829 16.2116C17.254 16.0796 17.3429 15.9552 17.4419 15.8435L17.4596 15.8232C17.5713 15.7013 17.6983 15.5972 17.8379 15.5109C17.9699 15.4271 18.1197 15.3611 18.2797 15.3103H18.2822C18.6478 15.1986 19.054 15.1961 19.4679 15.3332L19.4856 15.3382L19.5085 13.754ZM12.1357 22.5384L12.0824 22.1347C13.0065 21.3528 14.3648 19.6746 14.7126 19.3166C14.7202 19.309 14.7278 19.3014 14.7355 19.2938C15.002 19.0526 15.2432 18.6844 15.1493 18.3087C15.1239 18.2097 15.0757 18.1208 15.0122 18.0523C14.9487 17.9837 14.87 17.9329 14.7761 17.905C14.5476 17.8365 14.2455 17.9126 13.9433 18.2224C13.8723 18.2934 13.6895 18.4813 13.5117 18.654C13.3416 18.8165 13.169 18.9739 13.0547 19.0373C13.0167 19.0627 12.971 19.0805 12.9227 19.0805L12.7323 18.9916L12.6638 18.0472C12.6409 16.2776 12.6079 15.6988 12.5876 13.9241C12.5851 13.7667 12.519 13.6245 12.4124 13.5204C12.3058 13.4163 12.1611 13.3554 12.0037 13.3579C11.8463 13.3605 11.7015 13.4265 11.6 13.5306C11.4984 13.6347 11.4324 13.7819 11.435 13.9393L11.4756 17.3845L10.978 17.3896L10.9221 12.8375C10.9196 12.6801 10.8536 12.5379 10.7495 12.4338C10.6428 12.3297 10.4981 12.2662 10.3407 12.2688C10.1833 12.2713 10.0386 12.3373 9.93704 12.444C9.83295 12.5506 9.76948 12.6953 9.77202 12.8527L9.82533 17.4023L9.31756 17.4074L9.27694 13.952C9.2744 13.7946 9.20839 13.6499 9.10176 13.5483C8.99767 13.4443 8.85295 13.3833 8.69555 13.3859C8.53814 13.3884 8.39342 13.4544 8.29187 13.561C8.18778 13.6677 8.12431 13.8124 8.12684 13.9698L8.17001 17.4252L7.69016 17.4302L7.66224 15.1453C7.6597 14.9879 7.59369 14.8432 7.4896 14.7416C7.3855 14.6401 7.23825 14.574 7.08084 14.5766C6.92343 14.5791 6.77872 14.6451 6.67716 14.7518C6.57307 14.8584 6.51214 15.0031 6.51468 15.1605L6.54261 17.4455C6.55784 18.72 6.57307 18.8317 6.5883 20.1062C6.59338 20.6393 7.15193 21.5863 7.39312 22.1017C7.41343 22.1423 7.41851 22.188 7.41343 22.2312L7.36773 22.546H12.1357V22.5384ZM21.2958 21.208L21.3491 20.8044C20.425 20.0224 19.0667 18.3442 18.7214 17.9862C18.7138 17.9786 18.7062 17.971 18.6986 17.9634C18.432 17.7222 18.1908 17.3541 18.2848 16.9783C18.3102 16.8793 18.3584 16.7905 18.4219 16.7219C18.4853 16.6508 18.564 16.6026 18.658 16.5747C18.8865 16.5036 19.1886 16.5823 19.4907 16.892C19.5593 16.9631 19.7446 17.151 19.9223 17.3236C20.0924 17.4861 20.2651 17.6435 20.3793 17.7095C20.4174 17.7349 20.4631 17.7501 20.5113 17.7501L20.7017 17.6613L20.7703 16.7168C20.7931 14.9473 20.8261 14.3709 20.8465 12.5937C20.849 12.4363 20.915 12.2916 21.0216 12.1901C21.1283 12.086 21.273 12.025 21.4304 12.0276C21.5878 12.0301 21.7325 12.0961 21.8341 12.2002C21.9382 12.3069 22.0016 12.4516 21.9991 12.609L21.9559 16.0517L22.451 16.0567L22.5069 11.5046C22.5094 11.3472 22.5754 11.2025 22.6795 11.1009C22.7861 10.9968 22.9308 10.9333 23.0883 10.9359C23.2457 10.9384 23.3904 11.0044 23.4919 11.1111C23.596 11.2177 23.6595 11.3624 23.657 11.5198L23.6036 16.0694L24.1114 16.0745L24.1546 12.6166C24.1571 12.4592 24.2231 12.317 24.3298 12.2129C24.4338 12.1088 24.5786 12.0479 24.736 12.0504C24.8934 12.053 25.0381 12.119 25.1396 12.2256C25.2437 12.3322 25.3072 12.477 25.3047 12.6344L25.2615 16.0897L25.7413 16.0948L25.7693 13.8099C25.7718 13.6524 25.8378 13.5077 25.9419 13.4062C26.0485 13.3021 26.1933 13.2386 26.3507 13.2411C26.5081 13.2437 26.6528 13.3097 26.7543 13.4163C26.8584 13.523 26.9194 13.6677 26.9168 13.8251L26.8889 16.11C26.8737 17.3845 26.8584 17.4963 26.8432 18.7708C26.8381 19.3039 26.2796 20.2509 26.0384 20.7663C26.0181 20.8094 26.013 20.8551 26.0181 20.8958L26.0638 21.2106H21.2958V21.208Z" fill="white"/>
</svg>
